<?xml version="1.0" encoding="utf-8"?>
<svg xmlns="http://www.w3.org/2000/svg" xmlns:xlink="http://www.w3.org/1999/xlink" style="margin: auto; background: rgb(241, 242, 243); display: block; z-index: 1; position: relative; shape-rendering: auto;" width="1368" height="793" preserveAspectRatio="xMidYMid" viewBox="0 0 1368 793">
<g transform="translate(684,396.5) scale(1,1) translate(-684,-396.5)"><g transform="translate(1062.3262199254805,103.04010271095495) scale(100)" opacity="0.4">
  <path d="M4.644359999999999 0 C4.644359999999999 1.1012399999999998 4.8215455223194885 1.5121181843364244 4.270925522319489 2.4658199999999995 S3.275881815663575 3.4715137443202946 2.32218 4.0221337443202945 S1.10124 4.93164 3.0197585702735264e-16 4.93164 S-1.3684781843364235 4.572753744320294 -2.3221799999999986 4.0221337443202945 S-3.720305522319488 3.4195218156635763 -4.270925522319488 2.4658200000000017 S-4.644359999999999 1.1012400000000004 -4.644359999999999 5.687700608088e-16 S-4.821545522319489 -1.5121181843364233 -4.27092552231949 -2.4658199999999986 S-3.2758818156635763 -3.4715137443202932 -2.3221800000000017 -4.022133744320294 S-1.1012400000000007 -4.93164 -9.059275710820578e-16 -4.93164 S1.3684781843364209 -4.572753744320296 2.3221799999999964 -4.022133744320296 S3.720305522319487 -3.4195218156635767 4.270925522319487 -2.465820000000002 S4.644359999999999 -1.1012400000000009 4.644359999999999 -1.1375401216176e-15" fill="#7e7e7e" stroke-width="0">
    <animateTransform attributeName="transform" type="rotate" dur="10s" repeatCount="indefinite" values="0;60"></animateTransform>
  </path>
</g><g transform="translate(1137.9914639105766,44.3481232531459) scale(100)" opacity="0.4">
  <path d="M5.573231999999999 0 C5.573231999999999 1.3214879999999998 5.785854626783387 1.8145418212037094 5.125110626783387 2.9589839999999996 S3.93105817879629 4.165816493184353 2.786616 4.8265604931843535 S1.3214880000000002 5.917968 3.6237102843282316e-16 5.917968 S-1.642173821203708 5.487304493184354 -2.786615999999998 4.826560493184354 S-4.464366626783386 4.103426178796292 -5.125110626783386 2.958984000000002 S-5.573231999999999 1.3214880000000004 -5.573231999999999 6.8252407297056e-16 S-5.7858546267833875 -1.8145418212037079 -5.125110626783388 -2.9589839999999983 S-3.9310581787962917 -4.165816493184352 -2.786616000000002 -4.826560493184353 S-1.3214880000000009 -5.917968 -1.0871130852984695e-15 -5.917968 S1.6421738212037054 -5.4873044931843555 2.786615999999996 -4.826560493184356 S4.464366626783385 -4.103426178796292 5.1251106267833855 -2.9589840000000027 S5.573231999999999 -1.321488000000001 5.573231999999999 -1.36504814594112e-15" fill="#a9a9a9" stroke-width="0">
    <animateTransform attributeName="transform" type="rotate" dur="5s" repeatCount="indefinite" values="0;60"></animateTransform>
  </path>
</g><g transform="translate(1319.5880494748071,-96.51262744559568) scale(100)" opacity="0.4">
  <path d="M7.8025248 0 C7.8025248 1.8500831999999998 8.100196477496741 2.540358549685193 7.175154877496742 4.142577599999999 S5.503481450314807 5.8321430904580955 3.9012624000000007 6.757184690458096 S1.8500832000000003 8.2851552 5.073194398059525e-16 8.2851552 S-2.2990433496851916 7.682226290458096 -3.901262399999998 6.7571846904580966 S-6.250113277496739 5.744796650314809 -7.17515487749674 4.142577600000003 S-7.8025248 1.8500832000000007 -7.8025248 9.555337021587842e-16 S-8.100196477496743 -2.540358549685191 -7.175154877496743 -4.142577599999997 S-5.503481450314809 -5.832143090458093 -3.9012624000000033 -6.757184690458094 S-1.8500832000000014 -8.2851552 -1.5219583194178572e-15 -8.2851552 S2.2990433496851876 -7.682226290458098 3.9012623999999945 -6.757184690458099 S6.250113277496738 -5.744796650314809 7.175154877496739 -4.142577600000004 S7.802524799999999 -1.8500832000000018 7.8025248 -1.9110674043175684e-15" fill="#d6d6d6" stroke-width="0">
    <animateTransform attributeName="transform" type="rotate" dur="3.3333333333333335s" repeatCount="indefinite" values="0;60"></animateTransform>
  </path>
</g></g>
</svg>